<?xml version="1.0" encoding="UTF-8"?>
<svg id="Layer_1" data-name="Layer 1" xmlns="http://www.w3.org/2000/svg" viewBox="0 0 24 24">
  <path d="M17,5.94c-.1,0-.2.02-.3.03-.14-.54-.52-1.02-1.09-1.32-.38-.2-1.46-.61-3.03.04.32-1.08-.19-1.93-.93-2.33-.98-.54-2.42-.4-3,.65,0,.01-.01.02-.02.03-.43-.38-1.01-.57-1.61-.48-.87.13-1.58.77-1.94,1.77l-.05.13c-.29.79-.62,1.72-.79,2.81-.36-.43-.77-.71-1.22-.66-1.16.1-1.27,1.85-1.32,2.51-.26,4.03,2.47,10.33,4.26,12.01,1.46,1.36,3.38,2.08,5.38,2.08.91,0,1.83-.15,2.73-.45,3.15-1.07,5.34-3.9,5.58-7.22.04-.73.39-7.2-1.35-9.02-.36-.38-.8-.56-1.29-.58ZM15.1,8.94c.09.75-.07,1.57-.17,1.95-.35.12-.91.33-1.53.62-.32-1.48.09-2.48.61-2.68l.33-.12c.24-.09.49-.18.74-.28,0,.17,0,.33.03.51ZM18.24,15.45c-.2,2.75-2.02,5.1-4.63,5.99-2.4.81-4.96.3-6.7-1.32-1.4-1.31-4.06-7.19-3.82-10.9.03-.49.09-.8.14-1,.37.48.93,1.63,1.26,2.98,0,.02,1.08,2.78,2.22,4.39.14.19.35.29.57.29.14,0,.28-.04.41-.13.31-.22.39-.66.16-.98-3.37-4.75-2.3-7.68-1.51-9.83l.05-.13c.19-.51.48-.81.83-.87.22-.03.44.05.56.21.1.14.1.3.05.48-.02.06-.26.86-.26.88-.88,3.16-.51,5.76.71,8.12.18.34.6.48.94.3.34-.18.48-.6.3-.94-1.07-2.07-1.39-4.37-.6-7.16,0,0,0,0,0,0,.25-.95.51-1.39.75-1.81.07-.11.13-.22.19-.34.15-.26.71-.31,1.1-.1.15.08.53.29.14,1.01-.35.63-.65,1.22-.91,1.78,0,0,0,0,0,0-.8,1.79-1.05,3.36-.17,5.53.11.27.37.44.65.44.09,0,.18-.02.26-.05.36-.15.53-.55.39-.91-.61-1.51-.57-2.62-.04-3.97.08-.21.22-.4.4-.55,1.47-1.2,2.64-1.31,3.27-.99.32.17.43.41.41.58-.05.38-.63.61-1.51.93l-.34.13c-1.23.47-2.06,2.25-1.37,4.71-.86.58-1.68,1.36-2.14,2.42-.58,1.33-.49,2.85.25,4.52.16.35.57.51.92.35.35-.16.51-.57.35-.92-.58-1.29-.66-2.43-.25-3.39.81-1.87,3.33-2.73,4.16-3.02.4-.14.7-.47.81-.88.13-.52.34-1.54.22-2.54-.1-.87.08-1.2.18-1.29.22-.21.48-.14.61,0,.99,1.04,1.12,5.45.96,7.97Z"/>
  <path d="M16.03,4.27c.06.02.12.02.17.02.31,0,.6-.21.68-.53l.59-2.28c.1-.37-.13-.76-.5-.85-.37-.1-.76.13-.85.5l-.59,2.28c-.1.37.13.76.5.85Z"/>
  <path d="M17.36,4.93c.13.09.27.14.42.14.21,0,.42-.1.56-.28l2-2.68c.23-.31.17-.75-.14-.98-.31-.23-.75-.17-.98.14l-2,2.68c-.23.31-.17.75.14.98Z"/>
  <path d="M21.86,4.14c-.17-.35-.59-.48-.94-.31l-2.22,1.11c-.35.17-.49.59-.31.94.12.25.37.39.63.39.1,0,.21-.02.31-.07l2.22-1.11c.35-.17.49-.59.31-.94Z"/>
</svg>