<?xml version="1.0" encoding="UTF-8"?>
<svg id="Layer_1" data-name="Layer 1" xmlns="http://www.w3.org/2000/svg" viewBox="0 0 24 24">
  <defs>
    <style>
      .cls-1 {
        fill: none;
        stroke: #000;
        stroke-linecap: round;
        stroke-miterlimit: 10;
        stroke-width: 1.05px;
      }
    </style>
  </defs>
  <path class="cls-1" d="M10.9,18.88c-2.32-5.18,3.1-6.94,4.61-7.45,0,0,.44-1.33.29-2.58-.18-1.53.38-2.2,1.21-2.21,2.48-.03,1.93,8.86,1.93,8.86-.22,2.93-2.15,5.6-5.11,6.6-2.65.9-5.5.3-7.4-1.48-1.6-1.5-4.29-7.55-4.04-11.45s2.11-.86,2.78,1.86"/>
  <path class="cls-1" d="M12.96,12.54c-.8-2.21-.27-3.95.8-4.36s2.17-.7,2.3-1.62c.17-1.26-2.07-2.76-5.22.11"/>
  <path class="cls-1" d="M10.98,12.31c-1.42-2.93-.8-4.55.75-7.38,1.13-2.07-1.8-2.81-2.47-1.59-.31.57-.67,1.01-1.01,2.31"/>
  <path class="cls-1" d="M9.12,14.27c-1.76-2.69-1.75-5.94-.71-9.18.82-1.76-1.83-2.85-2.68-.52s-2.29,5.9,2.35,11.66"/>
  <line class="cls-1" x1="16.21" y1="3.6" x2="16.79" y2="1.31"/>
  <line class="cls-1" x1="17.78" y1="4.37" x2="19.77" y2="1.69"/>
  <line class="cls-1" x1="19.01" y1="5.56" x2="21.23" y2="4.46"/>
</svg>